Patient4_TMGait_0pt8_01_right_08_EMG.mot
version=1
nRows=30
nColumns=33
inDegrees=no
endheader
time	1LAddLong	2LGlutMax	3LGlutMed	4LIliopsoas	5LSemiMemb	6LBicFemLong	7LRecFem	8LVastMed	9LVastLat	10LGasMed	11LTibAnt	12lTibPost	13LPeroneusLong	14LSol	15LExtDigLong	16LFlexDigLong	17RAddLong	18RGlutMax	19RGlutMed	20RIliopsoas	21RSemiMemb	22RBicFemLong	23RRecFem	24RVastMed	25RVastLat	26RGasMed	27RTibAnt	28RTibPost	29RPeroneusLong	30RSol	31RExtDigLong	32RFlexDigLong
8.74	0.004272	-0.16129	-0.018616	0.005035	0.008392	0.13275	0.22964	-0.028229	-0.046692	0.25543	0.00473	-0.014801	0.24109	0.12268	-0.020447	-0.038452	0.077057	-0.084839	0.62302	0.052338	0.00412	0.058594	-0.056305	0.012665	-0.003967	-0.018616	0.46158	-0.007019	-0.19623	0.13138	-0.001526	0.012817
8.741	0.006866	-0.17014	0	0.01236	0.005035	0.094299	0.18509	-0.016785	-0.01358	0.23438	0.000763	0.000916	0.38696	0.12726	-0.012207	-0.056458	0.055237	-0.098572	0.61981	-0.033417	-0.015106	0.073395	-0.000458	-0.026855	-0.015259	-0.019989	-0.017395	-0.004883	-0.12833	0.10727	0.000458	0.005798
8.742	0.000763	-0.10346	0.002594	0.007477	-0.00946	0.10941	0.1947	-0.017395	0.001526	0.030518	0.014343	-0.014343	0.34409	0.15121	0.004578	0.007935	0.026855	-0.082092	0.5867	-0.081024	-0.081177	0.063324	0.002441	-0.042114	-0.003204	-0.011139	-0.091553	-0.000153	-0.22079	0.031281	0.005341	-0.018005
8.743	0.00351	-0.098724	0.046082	0.009918	-0.041351	0.13046	0.17532	-0.002594	0.040894	-0.12405	0.023346	-0.018158	-0.035553	0.47028	0.072327	0.057983	0.002136	-0.10666	0.60867	-0.041504	-0.053406	0.098572	-0.000916	-0.011139	0	-0.007782	-0.29846	-0.007935	-0.070648	0.013428	-0.002899	-0.0177
8.744	0.00473	-0.075226	0.027466	0.017853	-0.04303	0.054474	0.2034	-0.00473	0.022583	-0.050354	0.029602	-0.023651	-0.028992	0.13733	0.045166	0.02243	-0.009918	-0.069427	0.70465	0.045624	-0.073242	0.099182	0.07843	-0.017395	-0.021057	-0.006256	-0.54153	-0.006714	0.067291	-0.18051	0.003204	-0.011292
8.745	0.007782	-0.076599	0.065308	0.011749	-0.029755	-0.27008	0.1973	-0.00412	0.016632	0.16434	0.02182	-0.10956	-0.55801	-0.10742	-0.077667	-0.027771	-0.012817	-0.06424	0.62241	0.11871	-0.04776	0.080566	0.099945	-0.0383	-0.01709	-0.007782	-0.19653	0.001678	0.74371	-0.23895	0.003662	-0.022125
8.746	0.002441	-0.096436	0.014191	0.004425	0.037842	-0.10803	0.17273	-0.002289	0.018158	0.16327	-0.00351	0.16251	0.028076	-0.060425	-0.10757	-0.048065	0.018005	-0.067444	0.62134	0.21255	-0.039063	0.063324	0.098419	-0.044861	-0.032196	-0.007019	0.15717	-0.003052	0.55832	-0.14954	0.001984	-0.023193
8.747	0.002441	-0.10208	0.064545	0.001831	0.050507	0.001068	0.14572	-0.003204	0.024872	-0.03067	-0.027313	0.025787	0.61798	-0.062256	-0.033417	-0.044556	-0.00824	-0.037384	0.58884	0.13931	-0.028076	0.058899	0.12192	-0.070801	-0.018616	-0.005951	0.29999	-0.001678	0.75928	-0.12161	-0.001984	-0.02533
8.748	0.001984	-0.11353	0.063019	0.00824	0.014801	-0.046692	0.13168	-0.002289	0.036621	-0.013275	0.024567	-0.000916	0.002899	-0.17853	0.030975	-0.073242	-0.025024	-0.13397	0.59464	-0.010376	-0.018005	0.066223	0.13168	-0.030212	-0.018158	0.001221	0.24674	-0.002289	-0.1442	-0.11093	0.002747	-0.017548
8.749	0.006714	-0.099335	0.00885	0.00351	-0.002594	-0.058289	0.13229	0.008087	0.033722	0.002747	0.019379	0.040283	-0.11429	-0.33783	0.011444	-0.017242	-0.041504	-0.1091	0.57114	-0.12131	-0.066528	0.023499	0.13534	-0.059509	-0.018311	0.005646	-0.11948	-0.006104	-0.82993	-0.097046	0.006409	-0.011902
8.75	0.010681	-0.10223	-0.02655	0.003662	0.007172	-0.041809	0.15472	0.008698	0.032806	0.046844	-0.020142	-0.027161	0.075378	-0.16693	0.09491	0.09964	-0.057068	-0.13718	0.52383	-0.030975	-0.17548	0.084839	0.16144	-0.091095	-0.02121	0.002594	-0.37994	-0.002899	-0.45898	-0.019379	0.002136	-0.012817
8.751	0.012817	-0.083771	0.081787	0.006714	-0.007782	0.007324	0.15488	-0.00473	0.015564	0.12482	0.050354	-0.036011	-0.26459	-0.1712	0.045166	0.036926	-0.050049	-0.097656	0.58701	0.08194	-0.18967	0.1181	0.1648	-0.098419	-0.019073	-0.006104	-0.075378	-0.006409	0.19424	0.12558	-0.001678	-0.016937
8.752	0.014191	-0.085602	0.11017	-0.004425	-0.007477	-0.046997	0.16907	-0.005493	0.026855	0.21637	0.074463	0.074615	-0.5954	-0.47607	-0.096436	-0.045166	-0.026093	-0.060883	0.52383	0.012512	-0.11215	0.13229	0.13001	-0.056458	-0.007324	-0.022583	0.018463	-0.002136	0.45151	0.09903	0.000458	-0.002441
8.753	0.015869	-0.09201	0.10742	-0.011292	-0.011597	-0.0914	0.18066	-0.006104	0.023041	0.30746	0.042114	-0.052643	0.27329	-0.16556	-0.076904	-0.052795	0.01358	-0.12756	0.53131	-0.038757	0.11871	0.13077	0.085602	-0.055847	-0.007019	-0.019989	-0.24857	-0.007782	0.21225	0.010071	-0.001984	0.006409
8.754	0.015259	-0.11063	0.06134	-0.001678	-0.024872	-0.031891	0.17624	-0.007477	0.050354	0.11017	0.022278	0.052643	0.29343	0.38437	-0.004578	0.040436	0.023651	-0.11581	0.5394	-0.036011	0.1268	0.087128	-0.016785	-0.036163	-0.009308	-0.010529	-0.14358	-0.000763	-0.047455	-0.088043	0.010986	0.020905
8.755	0.00946	-0.12177	0.058899	0.008545	0.020752	-0.008698	0.1828	0.005035	0.03006	0.028839	-0.028992	0.047302	0.18707	0.32105	0.022736	0.06958	0.029449	-0.10071	0.56595	-0.059052	0.033264	0.10635	-0.10941	-0.033264	-0.015717	-0.012817	-0.17563	0.000305	-0.48355	-0.13733	-0.003052	0.025177
8.756	-0.000763	-0.13901	-0.020599	-0.010071	0.041351	-0.057678	0.17014	0.006714	0.025635	-0.11169	-0.060577	-0.017548	0.15854	-0.21881	-0.065765	-0.40649	0.015259	-0.12009	0.71152	-0.039215	-0.021667	0.10559	-0.074158	-0.068054	-0.016327	-0.012207	-0.17349	-0.001373	-0.39856	-0.091095	0.00061	0.013275
8.757	-0.007019	-0.11414	0.056	-0.007324	-0.00412	-0.016327	0.177	0.009613	0.023346	-0.24414	-0.026855	-0.17288	0.1532	-0.69458	-0.047302	-0.52765	0.003204	-0.092468	0.39566	0.012207	-0.040894	0.076904	-0.06485	-0.03006	-0.014801	-0.015869	0.088959	-0.000916	-0.24765	-0.011444	-0.001221	0.007019
8.758	-0.013275	-0.13168	0.10407	0.003662	-0.079346	0.046997	0.17731	0.009155	0.015411	-0.079041	-0.018463	0.058746	0.41199	-0.39352	0.016937	0.42999	-0.003357	-0.097656	-0.008392	-0.003052	-0.03479	0.080719	-0.033569	-0.006561	-0.00473	-0.010223	0.12039	-0.003815	-0.37659	-0.069885	0.002136	0.001373
8.759	-0.007935	-0.1532	-0.10132	0.001831	-0.10498	0.05188	0.1796	0.006256	0.014038	0.087433	-0.027008	0.17166	-0.087433	0.14832	-0.030823	0.15884	-0.002899	-0.11398	0.18036	0.01358	-0.035706	0.076294	-0.052032	-0.049286	-0.001984	-0.003815	0.17563	-0.001984	-0.28778	-0.16113	0	0
8.76	0.02121	-0.12833	-0.18448	0.005798	-0.018616	-0.023956	0.15549	0.002899	0.019684	-0.15106	-0.022583	0.096283	-0.14633	0.31815	-0.053253	-0.15533	0.011444	-0.036163	0.59799	-0.017853	-0.030365	0.094757	-0.034485	-0.060883	0.005951	-0.008392	0.37735	-0.002289	0.09491	-0.14496	-0.000153	0.002136
8.761	0.029144	-0.11993	-0.053253	0.009155	-0.014954	-0.021515	0.15656	0.004425	0.022888	-0.099792	0.015564	0.060272	-0.13626	0.32181	0.018921	0.52887	0.003967	-0.044403	0.80734	-0.027466	-0.026245	0.077209	-0.031128	-0.073242	-0.011444	-0.013885	0.35095	-0.002747	-0.049591	0.045624	0.003204	-0.004272
8.762	0.026703	-0.10254	-0.051117	0.004425	-0.016785	0.027771	0.15671	-0.005341	0.024414	0.036621	0.018005	-0.058899	-0.071259	0.007019	-0.029144	0.19836	0.002136	-0.17303	0.66544	-0.007172	-0.006409	0.059967	-0.008698	-0.086517	0.003357	-0.024109	0.32059	0.004425	-0.002899	0.13062	-0.000458	-0.005188
8.763	0.031128	-0.076141	-0.001984	0.005646	0.103	-0.05661	0.15305	-0.002441	0.025635	0.18906	0.000305	0.020905	0.13138	0.09552	-0.031128	-0.24567	-0.013428	-0.2182	0.5809	0.026245	-0.01236	0.0354	0.008392	-0.090485	-0.019531	-0.02121	0.11749	-0.002747	-0.00351	0.098724	0.003204	-0.012817
8.764	0.02243	-0.14603	0.15595	0.003204	0.065918	-0.084839	0.1918	-0.007477	0.014191	-0.061493	-0.003815	0.15778	-0.013733	0.018616	-0.021667	0.42877	0.004425	-0.2092	0.41458	0.014191	0.000458	0.031128	0.076904	-0.10666	-0.027466	-0.023651	0.15854	-0.003204	0.17029	0.093384	0.001068	-0.013275
8.765	0.024567	-0.16205	0.10361	0.009308	0.03418	-0.050507	0.19058	0.011139	0.005188	-0.20874	-0.001526	-0.045624	-0.041351	0.19821	-0.039978	-0.081024	-0.004425	-0.1297	0.34576	-0.06134	-0.072174	0.032349	0.097656	-0.050354	-0.009613	-0.020752	0.23422	-0.002136	0.42893	0.028381	0.002289	-0.012054
8.766	0.022278	-0.11398	0.084991	0.00946	0.11398	0.001526	0.2124	0.001984	0.00885	-0.13367	-0.001984	0.069427	-0.007629	0.52246	0.037384	0.15411	-0.011749	-0.13092	0.30685	-0.13779	0.014954	-0.007629	0.076904	-0.014801	-0.010223	-0.007477	0.092926	-0.001526	-0.092926	-0.10193	-0.004883	-0.014648
8.767	0.025635	-0.14206	0.05661	0.006256	0.15732	0.058289	0.19821	0.006104	-0.020142	-0.14603	-0.007477	-0.05722	0.085602	0.5127	0.044708	0.19165	-0.002136	-0.13031	0.42938	-0.10986	0.005798	-0.046082	0.062866	-0.043335	0.010834	-0.019226	-0.23697	-0.000458	-0.53909	-0.076904	-0.000458	-0.011292
8.768	0.016937	-0.1561	0.010986	0.013733	0.10559	0.14206	0.17425	0.009155	-0.04364	-0.18967	-0.013275	-0.039978	0.081329	0.14191	0.010376	-0.006104	0.005341	-0.16663	0.38788	-0.06897	-0.052338	0.038452	0.010529	-0.090179	0.006409	-0.028076	-0.25559	-0.000916	0.066376	0.017242	0.00061	-0.010071
8.769	0.019989	-0.16556	-0.032196	0.012054	0.066223	0.15182	0.15427	0.009003	-0.058594	-0.24597	0.002899	0.024567	0.033112	0.11917	-0.028534	-0.036621	-0.00824	-0.17395	0.19302	0.020447	-0.10254	0.09079	0.009003	-0.021362	0.023499	-0.019226	-0.17853	-0.002594	0.17502	-0.029297	-0.001068	-0.007782
